<?xml version="1.0" ?><svg height="24px" version="1.1" viewBox="0 0 24 24" width="24px" xmlns="http://www.w3.org/2000/svg" xmlns:sketch="http://www.bohemiancoding.com/sketch/ns" xmlns:xlink="http://www.w3.org/1999/xlink"><title/><desc/><defs/><g fill-rule="evenodd" stroke="none" stroke-width="1"><g transform="translate(-359.000000, -191.000000)"><g transform="translate(215.000000, 119.000000)"/><path d="M360,202.5 C360,196.148725 365.148725,191 371.5,191 C377.851275,191 383,196.148725 383,202.5 C383,208.851275 377.851275,214 371.5,214 C365.148725,214 360,208.851275 360,202.5 Z M382,202.5 C382,196.70101 377.29899,192 371.5,192 C365.70101,192 361,196.70101 361,202.5 C361,208.29899 365.70101,213 371.5,213 C377.29899,213 382,208.29899 382,202.5 Z M372.656854,196.843146 L374.071068,198.257359 L369.828427,202.5 L374.071068,206.742641 L372.656854,208.156854 L367,202.5 L372.656854,196.843146 Z"/></g></g></svg>
