<?xml version="1.0" encoding="utf-8"?>
<!-- Generator: Adobe Illustrator 19.2.0, SVG Export Plug-In . SVG Version: 6.00 Build 0)  -->
<svg version="1.1" id="Layer_1" xmlns="http://www.w3.org/2000/svg" xmlns:xlink="http://www.w3.org/1999/xlink" x="0px" y="0px"
	 viewBox="0 0 512 512" style="enable-background:new 0 0 512 512;" xml:space="preserve">
<style type="text/css">
	.st0{fill:#FFFFFF;}
</style>
<path class="st0" d="M461.6,109.6l-54.9-43.3c-1.7-1.4-3.8-2.4-6.2-2.4c-2.4,0-4.6,1-6.3,2.5L194.5,323c0,0-78.5-75.5-80.7-77.7
	s-5.1-5.9-9.5-5.9s-6.4,3.1-8.7,5.4c-1.7,1.8-29.7,31.2-43.5,45.8c-0.8,0.9-1.3,1.4-2,2.1c-1.2,1.7-2,3.6-2,5.7c0,2.2,0.8,4,2,5.7
	l2.8,2.6c0,0,139.3,133.8,141.6,136.1s5.1,5.2,9.2,5.2c4,0,7.3-4.3,9.2-6.2l249.1-320c1.2-1.7,2-3.6,2-5.8
	C464,113.5,463,111.4,461.6,109.6z"/>
</svg>
