<svg xmlns="http://www.w3.org/2000/svg" viewBox="0 0 78.2 76.23"><title>cog</title><circle cx="39.1" cy="38.58" r="12.53" fill="#fff"/><path d="M64.49,39.21l6.91-4.33-1.83-8L61.46,26l-5.62-7,0.93-8.1L49.36,7.26,43.6,13h-9L28.83,7.26l-7.41,3.57,0.93,8.1-5.62,7-8.11.9-1.83,8,6.91,4.33,2,8.78-4.35,6.9,5.13,6.43,7.69-2.7,8.12,3.91L35,70.23h8.22l2.68-7.7L54,58.62l7.69,2.7,5.13-6.43L62.48,48ZM39.1,53.59a15,15,0,1,1,15-15A15,15,0,0,1,39.1,53.59Z" transform="translate(0 0)" fill="none"/><path d="M39.1,28.09a10.5,10.5,0,1,0,10.5,10.5A10.51,10.51,0,0,0,39.1,28.09Z" transform="translate(0 0)" fill="none"/><path d="M66.2,39.25l7.38-4.62-2-8.56L63,25.1l-6-7.52,1-8.65L50.06,5.13l-6.15,6.16H34.29L28.14,5.13,20.23,8.93l1,8.65-6,7.52-8.66,1-2,8.56L12,39.25l2.15,9.38L9.49,56,15,62.85,23.18,60l8.67,4.18,2.86,8.22h8.78l2.86-8.22L55,60l8.21,2.89L68.71,56l-4.65-7.36ZM39.1,54.59a16,16,0,1,1,16-16A16,16,0,0,1,39.1,54.59Z" transform="translate(0 0)" fill="#4e5963"/><path d="M39.1,21.92A16.67,16.67,0,1,0,55.77,38.59,16.67,16.67,0,0,0,39.1,21.92Zm0,28.34A11.67,11.67,0,1,1,50.77,38.59,11.68,11.68,0,0,1,39.1,50.26Z" transform="translate(0 0)" fill="#333f4f"/><path d="M69.78,43l8.42-5.27L74.47,21.38l-9.87-1.1-2.51-3.15,1.13-9.86L48.12,0l-7,7h-4l-7-7L15,7.27l1.13,9.86L13.6,20.28l-9.87,1.1L0,37.71,8.41,43l0.9,3.93L4,55.3,14.46,68.4l9.37-3.29,3.63,1.75,3.26,9.38H47.47l3.26-9.37,3.63-1.75,9.36,3.29L74.18,55.3l-5.3-8.4ZM61.7,61.33L54,58.62l-8.12,3.91-2.68,7.7H35l-2.68-7.7-8.12-3.91-7.69,2.7L11.36,54.9,15.72,48l-2-8.78L6.8,34.89l1.83-8,8.11-.9,5.62-7-0.93-8.1,7.41-3.57L34.59,13h9l5.76-5.77,7.41,3.57-0.93,8.1,5.62,7,8.11,0.9,1.83,8-6.91,4.33-2,8.79,4.35,6.9Z" transform="translate(0 0)" fill="#333f4f"/></svg>