<?xml version="1.0" encoding="utf-8"?>
<!-- Generator: Adobe Illustrator 19.2.0, SVG Export Plug-In . SVG Version: 6.00 Build 0)  -->
<svg version="1.1" id="GraphQL_Logo" xmlns="http://www.w3.org/2000/svg" xmlns:xlink="http://www.w3.org/1999/xlink" x="0px"
	 y="0px" viewBox="0 0 400 400" style="enable-background:new 0 0 400 400;" xml:space="preserve">
<style type="text/css">
	.st0{fill:#FFFFFF;stroke:#000000;stroke-miterlimit:10;}
	.st1{fill:#E535AB;}
</style>
<polygon class="st0" points="329,278 195.1,353.9 62.4,275.9 63.5,122 197.5,46.1 330.2,124.1 "/>
<g>
	<g>
		<g>
			<rect x="-29.8" y="151.5" transform="matrix(0.5 -0.866 0.866 0.5 -73.2313 192.798)" class="st1" width="320.3" height="16.6"/>
		</g>
	</g>
	<g>
		<g>
			<rect x="39.8" y="272.2" class="st1" width="320.3" height="16.6"/>
		</g>
	</g>
	<g>
		<g>
			<rect x="122.1" y="228.1" transform="matrix(0.5 -0.866 0.866 0.5 -212.4402 273.2132)" class="st1" width="16.6" height="185"/>
		</g>
	</g>
	<g>
		<g>
			<rect x="261.3" y="-13" transform="matrix(0.5 -0.866 0.866 0.5 65.9245 273.204)" class="st1" width="16.6" height="185"/>
		</g>
	</g>
	<g>
		<g>
			<rect x="37.9" y="71.1" transform="matrix(0.866 -0.5 0.5 0.866 -22.2476 75.8643)" class="st1" width="185" height="16.6"/>
		</g>
	</g>
	<g>
		<g>
			<rect x="261.4" y="-0.3" transform="matrix(0.866 -0.5 0.5 0.866 -43.7812 156.2568)" class="st1" width="16.6" height="320.3"/>
		</g>
	</g>
	<g>
		<g>
			<rect x="52.5" y="107.5" class="st1" width="16.6" height="185"/>
		</g>
	</g>
	<g>
		<g>
			<rect x="330.9" y="107.5" class="st1" width="16.6" height="185"/>
		</g>
	</g>
	<g>
		<g>
			
				<rect x="189.1" y="313.2" transform="matrix(0.866 -0.5 0.5 0.866 -124.1345 177.7266)" class="st1" width="160.9" height="14.5"/>
		</g>
	</g>
	<path class="st1" d="M369.5,297.9c-9.6,16.7-31,22.4-47.7,12.8s-22.4-31-12.8-47.7s31-22.4,47.7-12.8
		C373.5,259.9,379.2,281.2,369.5,297.9"/>
	<path class="st1" d="M90.9,137c-9.6,16.7-31,22.4-47.7,12.8c-16.7-9.6-22.4-31-12.8-47.7s31-22.4,47.7-12.8
		C94.8,99,100.5,120.3,90.9,137"/>
	<path class="st1" d="M30.5,297.9c-9.6-16.7-3.9-38,12.8-47.7c16.7-9.6,38-3.9,47.7,12.8c9.6,16.7,3.9,38-12.8,47.7
		C61.4,320.3,40.1,314.6,30.5,297.9"/>
	<path class="st1" d="M309.1,137c-9.6-16.7-3.9-38,12.8-47.7c16.7-9.6,38-3.9,47.7,12.8c9.6,16.7,3.9,38-12.8,47.7
		C340.1,159.4,318.7,153.7,309.1,137"/>
	<path class="st1" d="M200,395.8c-19.3,0-34.9-15.6-34.9-34.9S180.7,326,200,326s34.9,15.6,34.9,34.9
		C234.9,380.1,219.3,395.8,200,395.8"/>
	<path class="st1" d="M200,74c-19.3,0-34.9-15.6-34.9-34.9S180.7,4.2,200,4.2s34.9,15.6,34.9,34.9S219.3,74,200,74"/>
</g>
</svg>
