<svg id="Layer_1" enable-background="new 0 0 512 512" height="512" viewBox="0 0 512 512" width="512" xmlns="http://www.w3.org/2000/svg"><g><path d="m256 383.467c-8.284 0-15-6.716-15-15v-296.19c0-8.284 6.716-15 15-15s15 6.716 15 15v296.189c0 8.285-6.716 15.001-15 15.001z" fill="#14aa6b"/><path d="m352.4 447.733h-192.8c-8.284 0-15-6.716-15-15 0-43.708 35.559-79.267 79.267-79.267h64.268c43.708 0 79.267 35.559 79.267 79.267-.002 8.285-6.717 15-15.002 15z" fill="#d26432"/><path d="m507.625 61.689-12.562-12.602c-31.716-31.653-73.824-49.087-118.563-49.087-75.74 0-118.785 49.309-120.5 51.03-1.624-1.629-44.776-51.03-120.5-51.03-44.739 0-86.847 17.434-118.591 49.114l-12.534 12.575c-5.833 5.854-5.833 15.322 0 21.176l12.561 12.602c31.717 31.654 73.824 49.088 118.564 49.088 75.741 0 118.787-49.311 120.5-51.03 1.622 1.628 44.774 51.03 120.5 51.03 44.74 0 86.848-17.434 118.591-49.114l12.534-12.575c5.833-5.854 5.833-15.323 0-21.177z" fill="#87e752"/><path d="m507.625 61.689-12.562-12.602c-31.716-31.653-73.824-49.087-118.563-49.087-75.74 0-118.785 49.309-120.5 51.03v42.495c1.622 1.628 44.774 51.03 120.5 51.03 44.74 0 86.848-17.434 118.591-49.114l12.534-12.575c5.833-5.854 5.833-15.323 0-21.177z" fill="#4ec95f"/><path d="m367.4 432.733c0-43.708-35.559-79.267-79.267-79.267h-32.133v94.267h96.4c8.285 0 15-6.715 15-15z" fill="#a54628"/><path d="m352.4 417.733h-192.8c-39.872 0-72.962 29.591-78.463 67.965-.858 5.979 3.877 11.302 9.917 11.302h329.893c6.039 0 10.775-5.323 9.918-11.301-5.502-38.375-38.593-67.966-78.465-67.966z" fill="#a54628"/><path d="m430.864 485.699c-5.501-38.375-38.591-67.965-78.463-67.965h-96.401v79.266h164.947c6.039 0 10.774-5.323 9.917-11.301z" fill="#78281e"/><path d="m464.866 512h-417.732c-8.284 0-15-6.716-15-15s6.716-15 15-15h417.732c8.284 0 15 6.716 15 15s-6.716 15-15 15z" fill="#c8ff50"/><path d="m479.866 497c0-8.284-6.716-15-15-15h-208.866v30h208.867c8.283 0 14.999-6.716 14.999-15z" fill="#87e752"/></g></svg>