<?xml version="1.0" encoding="utf-8"?>
<!-- Generator: Adobe Illustrator 19.2.0, SVG Export Plug-In . SVG Version: 6.00 Build 0)  -->
<svg version="1.1" xmlns="http://www.w3.org/2000/svg" xmlns:xlink="http://www.w3.org/1999/xlink" x="0px" y="0px"
	 viewBox="0 0 57.0224075 23.9823036" style="enable-background:new 0 0 57.0224075 23.9823036;" xml:space="preserve">
<g id="Layer_1" style="display:none;">
	<g style="display:inline;">
		<path d="M1.7633047,14.8857803V8.2285538c0-4.7509766,1.9829102-7.1259766,5.9492188-7.1259766
			c0.8354492,0,1.578125,0.1098633,2.2280273,0.3291016c0.6494141,0.2197266,1.1948242,0.5234375,1.6352539,0.9106447
			c0.440918,0.387207,0.8037109,0.8637695,1.0883789,1.4296875c0.2851562,0.565918,0.4902344,1.1801758,0.6157227,1.8427734
			c0.1254883,0.6630859,0.1879883,1.3925781,0.1879883,2.1894531v1.730957H9.3878164V7.6811905
			c0-0.3647461-0.078125-1.5097656-0.1425781-1.8486328c-0.0644531-0.3383789-0.1518555-0.6142578-0.262207-0.8266602
			C8.8726797,4.7939835,8.7095938,4.6133194,8.4932852,4.4643936C8.2764883,4.3154678,8.0162344,4.2412491,7.7125235,4.2412491
			c-1.2006836,0-1.8007812,0.9902344-1.8007812,2.9707031v8.6791992c0,1.9731445,0.6000977,2.9599609,1.8007812,2.9599609
			c0.3569336,0,0.6567383-0.1005859,0.9003906-0.3017578c0.2426758-0.2011719,0.4174805-0.4858398,0.5239258-0.8544922
			s0.1787109-0.7294922,0.2167969-1.0834961c0.0375977-0.3535156,0.0566406-0.7573242,0.0566406-1.2119141V13.333046h4.0576172
			v1.6977539c-0.0151367,0.7670898-0.0795898,1.4746094-0.1938477,2.1225586
			c-0.1137695,0.6474609-0.3076172,1.2768555-0.5810547,1.8876953c-0.2734375,0.6103516-0.6210938,1.1259766-1.0429688,1.546875
			s-0.9667969,0.7592773-1.6352539,1.0161133c-0.6689453,0.2573242-1.4360352,0.3857422-2.3022461,0.3857422
			c-0.8891602,0-1.6772461-0.125-2.3652344-0.3745117c-0.6875-0.2490234-1.253418-0.5844727-1.6977539-1.0048828
			c-0.4448242-0.4208984-0.8115234-0.9384766-1.1000977-1.5527344s-0.4916992-1.2602539-0.6098633-1.9379883
			C1.8218985,16.4419327,1.7633047,15.6973038,1.7633047,14.8857803z"/>
		<path d="M17.4776592,14.9863663V8.2285538c0-4.7509766,1.9980469-7.1259766,5.9946289-7.1259766
			c4.0039062,0,6.0058594,2.375,6.0058594,7.1259766v6.6572266c0,0.8041992-0.0605469,1.546875-0.1816406,2.2280273
			c-0.1220703,0.6816406-0.3291016,1.3276367-0.6210938,1.9379883c-0.2929688,0.6108398-0.6650391,1.1303711-1.1171875,1.5585938
			s-1.0244141,0.7646484-1.7158203,1.0107422c-0.6914062,0.2456055-1.4814453,0.3686523-2.3701172,0.3686523
			c-0.8818359,0-1.6679688-0.1210938-2.359375-0.3632812c-0.6914062-0.2416992-1.2607422-0.5693359-1.7094727-0.9829102
			c-0.4482422-0.4130859-0.8188477-0.9194336-1.1108398-1.519043c-0.2929688-0.5991211-0.5014648-1.237793-0.6269531-1.9155273
			S17.4776592,15.7905655,17.4776592,14.9863663z M25.32971,15.9023819V7.2119522
			c0-1.9804688-0.6191406-2.9707031-1.8574219-2.9707031c-0.3720703,0-0.6875,0.0908203-0.9462891,0.2734375
			c-0.2578125,0.1826172-0.4482422,0.4321289-0.5693359,0.7485352C21.8345928,5.579628,21.7496319,5.8926163,21.6998272,6.20121
			c-0.0488281,0.309082-0.0742188,0.6459961-0.0742188,1.0107422v8.6904297c0,1.9731445,0.6162109,2.9599609,1.8466797,2.9599609
			C24.7105694,18.8623428,25.32971,17.8755264,25.32971,15.9023819z"/>
		<path d="M33.9898682,21.598671V1.4932021h4.1484375v17.3129883h4.0800781v2.7924805H33.9898682z"/>
		<path d="M45.8746338,21.598671V1.4932021h8.5585938v2.7924805h-4.4101562v5.4731445h3.1230469v2.859375h-3.1230469v6.1879883
			h4.4101562v2.7924805H45.8746338z"/>
	</g>
</g>
<g id="Layer_2">
	<g>
		<path style="fill:none;" d="M25.2707253,9.5786514c-0.2060547-0.2060547-0.453125-0.3657227-0.7421875-0.4790039
			s-0.6074219-0.1699219-0.9541016-0.1699219h-2.4433594c-0.3515625,0-0.671875,0.0566406-0.9609375,0.1699219
			c-0.2895508,0.1132812-0.5385742,0.2729492-0.746582,0.4790039c-0.2080078,0.2055664-0.3691406,0.453125-0.4824219,0.7421875
			c-0.1132812,0.2895508-0.1699219,0.6123047-0.1699219,0.9682617v1.9013672c0,0.3564453,0.0566406,0.6791992,0.1699219,0.9682617
			s0.2744141,0.5366211,0.4824219,0.7426758s0.4570312,0.3657227,0.746582,0.4790039
			c0.2890625,0.1132812,0.609375,0.1699219,0.9609375,0.1699219h2.4287109c0.3515625,0,0.6728516-0.0566406,0.9619141-0.1699219
			s0.5380859-0.2729492,0.7460938-0.4790039s0.3681641-0.4536133,0.4824219-0.7426758
			c0.1132812-0.2890625,0.1699219-0.6118164,0.1699219-0.9682617v-1.9013672c0-0.355957-0.0566406-0.6787109-0.1699219-0.9682617
			C25.6359596,10.0317764,25.4767799,9.7842178,25.2707253,9.5786514z"/>
		<path d="M6.9538302,7.3818741c-0.2451172,0.0786133-0.4614258,0.184082-0.6489258,0.315918
			C6.1178927,7.829628,5.9567599,7.9809952,5.8229709,8.1523819C5.6886935,8.3232803,5.5798068,8.5024796,5.496799,8.6899796
			c-0.0834961,0.1875-0.1450195,0.3774414-0.184082,0.5693359C5.2731662,9.45121,5.2536349,9.6304092,5.2536349,9.7969131v4.8857422
			c0,0.3100586,0.0395508,0.5888672,0.1181641,0.8364258s0.1835938,0.4648438,0.3154297,0.6523438
			s0.2836914,0.347168,0.4545898,0.4790039c0.1713867,0.1318359,0.3505859,0.2392578,0.5380859,0.3227539
			c0.1875,0.0830078,0.3769531,0.1445312,0.5688477,0.1835938c0.1918945,0.0395508,0.371582,0.059082,0.5380859,0.059082h6.5097661
			v-1.8041992H7.7868381c-0.2314453,0-0.4106445-0.0639648-0.5380859-0.190918
			c-0.1269531-0.1274414-0.1904297-0.3066406-0.1904297-0.5380859v-4.871582c0-0.2451172,0.0620117-0.4306641,0.1870117-0.5551758
			c0.125-0.125,0.3056641-0.1875,0.5415039-0.1875h6.5097661V7.26371H7.7868381
			C7.4767795,7.26371,7.1989474,7.3032608,6.9538302,7.3818741z"/>
		<path d="M26.5441628,8.3013077c-0.3701172-0.3676758-0.8085938-0.6557617-1.3144531-0.8637695
			c-0.5068359-0.2084961-1.0585938-0.3125-1.6552734-0.3125h-2.4433594c-0.5966797,0-1.1494141,0.1040039-1.6586914,0.3125
			c-0.5092773,0.2080078-0.9487305,0.4960938-1.3188477,0.8637695c-0.3701172,0.3681641-0.6606445,0.8076172-0.8710938,1.3188477
			s-0.3154297,1.0673828-0.3154297,1.6689453v1.9013672c0,0.6064453,0.1049805,1.1640625,0.3154297,1.6728516
			s0.5009766,0.9482422,0.8710938,1.3183594s0.8095703,0.6582031,1.3188477,0.8642578
			c0.5092773,0.2055664,1.0620117,0.3085938,1.6586914,0.3085938h2.4433594c0.5966797,0,1.1484375-0.1030273,1.6552734-0.3085938
			c0.5058594-0.2060547,0.9443359-0.4941406,1.3144531-0.8642578s0.6591797-0.8095703,0.8681641-1.3183594
			c0.2080078-0.5087891,0.3115234-1.0664062,0.3115234-1.6728516v-1.9013672c0-0.6015625-0.1035156-1.1577148-0.3115234-1.6689453
			C27.2033424,9.1089249,26.9142799,8.6694717,26.5441628,8.3013077z M25.9201393,13.1904678
			c0,0.3564453-0.0566406,0.6791992-0.1699219,0.9682617c-0.1142578,0.2890625-0.2744141,0.5366211-0.4824219,0.7426758
			s-0.4570312,0.3657227-0.7460938,0.4790039s-0.6103516,0.1699219-0.9619141,0.1699219h-2.4287109
			c-0.3515625,0-0.671875-0.0566406-0.9609375-0.1699219c-0.2895508-0.1132812-0.5385742-0.2729492-0.746582-0.4790039
			s-0.3691406-0.4536133-0.4824219-0.7426758s-0.1699219-0.6118164-0.1699219-0.9682617v-1.9013672
			c0-0.355957,0.0566406-0.6787109,0.1699219-0.9682617c0.1132812-0.2890625,0.2744141-0.5366211,0.4824219-0.7421875
			c0.2080078-0.2060547,0.4570312-0.3657227,0.746582-0.4790039c0.2890625-0.1132812,0.609375-0.1699219,0.9609375-0.1699219
			h2.4433594c0.3466797,0,0.6650391,0.0566406,0.9541016,0.1699219s0.5361328,0.2729492,0.7421875,0.4790039
			c0.2060547,0.2055664,0.3652344,0.453125,0.4794922,0.7421875c0.1132812,0.2895508,0.1699219,0.6123047,0.1699219,0.9682617
			V13.1904678z"/>
		<path d="M32.7336159,7.26371h-1.8046875v9.0429688c0,0.1293945,0.0234375,0.25,0.0693359,0.3608398
			c0.0458984,0.1113281,0.1103516,0.2070312,0.1914062,0.2880859c0.0800781,0.0810547,0.1767578,0.1445312,0.2880859,0.190918
			c0.1103516,0.0463867,0.2304688,0.0693359,0.3603516,0.0693359h8.2304688v-1.8041992h-7.3349609V7.26371z"/>
		<path d="M46.8732643,13.1489639v-1.8183594h4.0839844v1.8183594H46.8732643z"/>
		<path d="M51.7687721,7.26371H43.641819c-0.1289062,0-0.2490234,0.0234375-0.3603516,0.0698242
			c-0.1113281,0.0458984-0.2070312,0.1108398-0.2880859,0.1943359c-0.0810547,0.0830078-0.1445312,0.1801758-0.1904297,0.2915039
			c-0.046875,0.1108398-0.0703125,0.2290039-0.0703125,0.3535156v6.5097656c0,0.4672852,0.0849609,0.8618164,0.2539062,1.1835938
			c0.1689453,0.3212891,0.3789062,0.5825195,0.6318359,0.7841797c0.2519531,0.2011719,0.5253906,0.3457031,0.8222656,0.4335938
			c0.2958984,0.0878906,0.5683594,0.1318359,0.8183594,0.1318359h6.5097656v-1.8041992h-6.4960938
			c-0.2402344,0-0.4228516-0.0625-0.5478516-0.1875s-0.1875-0.3056641-0.1875-0.5415039V9.0683975h7.2314453V7.26371z"/>
	</g>
</g>
</svg>
