<svg xmlns="http://www.w3.org/2000/svg" viewBox="0 0 41.95 62.21"><title>microscope</title><path d="M16.65,60c-0.35.2-.82,0.62-0.82,2a2.29,2.29,0,0,0,.81,2.13,5.79,5.79,0,0,0,2.92.54c3.62,0.06,9.08.14,14.53,0.14,15.65,0,17.94-.62,18.27-0.8s0.25-1,0-2.3A2.42,2.42,0,0,0,51.09,60a4.06,4.06,0,0,0-1.46-.18l-30.56-.2A5,5,0,0,0,16.65,60Z" transform="translate(-13.83 -4.63)" fill="none"/><path d="M45.1,26.56a1.83,1.83,0,0,0-1.73,1.16,1.8,1.8,0,0,0,.26,1.55,1.87,1.87,0,0,0,1.38.87,1.89,1.89,0,0,0,1.36-.48A1.73,1.73,0,0,0,47,28.45a1.87,1.87,0,0,0-1.61-1.87Z" transform="translate(-13.83 -4.63)" fill="none"/><path d="M38.26,49.73a6.37,6.37,0,0,0-2.06-.54c-0.33-.05-0.66-0.1-1-0.17-2.59-.54-4.47-2.38-6.3-4.17l-0.31-.31c-1.65-1.6-3.45-3.22-5.67-5.08a5.65,5.65,0,0,0-3-1.51,2,2,0,0,0-2.15,1.31,2.8,2.8,0,0,0,.88,2.11,17.3,17.3,0,0,0,4.37,3.17c2,1.17,4.08,2.37,5.42,4.39,1.87,2.82,1.73,6.46,1.54,9.25h1l1.28-2.06a0.75,0.75,0,0,1,1.28.79L32.8,58.19h2a8.44,8.44,0,0,0,1.41-2.07,0.75,0.75,0,1,1,1.35.65,10,10,0,0,1-.85,1.43h1.46a0.7,0.7,0,0,1,.06-0.09,9,9,0,0,0,1.42-1.84,0.75,0.75,0,1,1,1.29.76,10.56,10.56,0,0,1-.82,1.19l3.84,0a45,45,0,0,0-3.9-6.67A5.9,5.9,0,0,0,38.26,49.73Z" transform="translate(-13.83 -4.63)" fill="none"/><path d="M22.44,50.3h-0.1a5.53,5.53,0,0,0-1.26.21l-3.16.78a2.24,2.24,0,0,0-1.22.55,1,1,0,0,0-.09.9,2.4,2.4,0,0,0,2.29,1.43v0A5.76,5.76,0,0,0,22,53a3.76,3.76,0,0,0,1.23-1.18,1.12,1.12,0,0,0,0-1.15A1.14,1.14,0,0,0,22.44,50.3Z" transform="translate(-13.83 -4.63)" fill="none"/><path d="M27.38,33.85a1.42,1.42,0,0,0-.21.32s0.08,0.07.36,0.26l2.77,1.79a1.81,1.81,0,0,0,.53.25A1.46,1.46,0,0,0,31.38,36l1.85-2.16a8.82,8.82,0,0,1-3.08-2.43l-0.46-.53Z" transform="translate(-13.83 -4.63)" fill="none"/><path d="M53.78,9a1.47,1.47,0,0,0-.5-0.52L51.46,7.07a1.58,1.58,0,0,0-.89-0.43,1.46,1.46,0,0,0-.43.36L47.57,9.71c0.51,0.28,1,.59,1.5.92a13.34,13.34,0,0,1,2.08,1.63l0.87-1c0.44-.5.88-1,1.35-1.56A1.51,1.51,0,0,0,53.78,9Z" transform="translate(-13.83 -4.63)" fill="none"/><path d="M29.71,31.67L27.86,34l2.72,1.75,0.21,0.12L31,35.68,32.42,34a10.5,10.5,0,0,1-2.64-2.26Z" transform="translate(-13.83 -4.63)" fill="none"/><path d="M49.35,10.21a16.33,16.33,0,0,1,1.76,1.32l0.54-.61c0.45-.51.88-1,1.34-1.55a3.75,3.75,0,0,0,.25-0.32L53,8.85,51.16,7.47a2.78,2.78,0,0,0-.47-0.31L48.38,9.59C48.67,9.77,49,10,49.35,10.21Z" transform="translate(-13.83 -4.63)" fill="none"/><path d="M55.75,8.62a2.89,2.89,0,0,0-1.26-1.76L52.67,5.47a3.46,3.46,0,0,0-2-.84,2.25,2.25,0,0,0-.63.09,3,3,0,0,0-1.32.91l-2.75,2.9a5.06,5.06,0,0,0-1.18-.14,4.59,4.59,0,0,0-.76.06c-1.83.3-3.09,1.61-4.22,2.92C36.13,15.59,32.59,20,29.25,24.46a5.73,5.73,0,0,0-1.45,3.28,4,4,0,0,0,.39,1.81l-2.4,3.07a2.43,2.43,0,0,0-.62,1.67,2.45,2.45,0,0,0,1.27,1.81l2.77,1.79a2.93,2.93,0,0,0,1.6.57H31A2.89,2.89,0,0,0,32.9,37.3l2.31-2.7a5.74,5.74,0,0,0,2.94-1.26,11.5,11.5,0,0,0,2-2.1,0.5,0.5,0,0,0,0-.54,6,6,0,0,1-.55-1.5,0.5,0.5,0,0,0-.77-0.31,1.2,1.2,0,0,0-.31.28,11.65,11.65,0,0,1-1.94,2.2,3.21,3.21,0,0,1-1.9.76H34.5c-1-.12-1.94-1-2.87-2.06a3.86,3.86,0,0,1-1.32-2.26A3.76,3.76,0,0,1,31.25,26c3.31-4.42,6.81-8.78,10.42-13a5.4,5.4,0,0,1,2.74-2.09,2.11,2.11,0,0,1,.35,0A6.5,6.5,0,0,1,48,12.29a5.77,5.77,0,0,1,2.54,2.56c0.47,1.52-.88,3.12-1.3,3.58s-0.83.87-1.23,1.26c-0.57.57-1.11,1.11-1.83,1.95a1.23,1.23,0,0,0-.3.82,0.5,0.5,0,0,0,.4.49,5.77,5.77,0,0,1,1.24.41,0.5,0.5,0,0,0,.21,0,0.5,0.5,0,0,0,.38-0.17c0.65-.76,1.15-1.25,1.67-1.78s0.79-.79,1.28-1.32c1.75-1.88,2.45-4.13,1.87-6a4.26,4.26,0,0,0-.22-0.56l0.86-1c0.45-.51.9-1,1.38-1.6A2.91,2.91,0,0,0,55.75,8.62ZM51.16,7.47L53,8.85l0.25,0.2a3.75,3.75,0,0,1-.25.32c-0.46.55-.89,1-1.34,1.55l-0.54.61a16.33,16.33,0,0,0-1.76-1.32c-0.36-.24-0.68-0.44-1-0.62l2.31-2.44A2.78,2.78,0,0,1,51.16,7.47ZM32.42,34L31,35.68l-0.22.24-0.21-.12L27.86,34l1.85-2.37,0.07,0.08A10.5,10.5,0,0,0,32.42,34Z" transform="translate(-13.83 -4.63)" fill="#555"/><path d="M23.31,44.09c2.07,1.2,4.19,2.43,5.59,4.55,1.79,2.7,1.83,6,1.66,9h0.21l1.13-1.82A1.25,1.25,0,0,1,34,57.17l-0.32.52h0.87a7.92,7.92,0,0,0,1.19-1.78,1.25,1.25,0,0,1,2.31.13A1.24,1.24,0,0,1,38,57c-0.12.24-.24,0.48-0.39,0.72h0.31A8.52,8.52,0,0,0,39.22,56a1.25,1.25,0,1,1,2.16,1.26l-0.28.45h2.07a44.3,44.3,0,0,0-3.5-5.88A5.49,5.49,0,0,0,38,50.17a6,6,0,0,0-1.88-.49c-0.35-.05-0.69-0.11-1-0.18-2.73-.57-4.67-2.47-6.55-4.3l-0.31-.31c-1.64-1.6-3.43-3.2-5.64-5.06a5.22,5.22,0,0,0-2.69-1.39H19.79a1.5,1.5,0,0,0-1.48.91A2.25,2.25,0,0,0,19.07,41,16.93,16.93,0,0,0,23.31,44.09Z" transform="translate(-13.83 -4.63)" fill="none"/><path d="M16.91,63.74a5.44,5.44,0,0,0,2.67.47c2.92,0.05,8.68.13,14.52,0.13,14.62,0,17.43-.55,17.93-0.71a5,5,0,0,0-.17-1.79,2,2,0,0,0-1-1.4,3.78,3.78,0,0,0-1.27-.14l-30.56-.2a4.6,4.6,0,0,0-2.17.36c-0.15.09-.56,0.32-0.56,1.59A1.9,1.9,0,0,0,16.91,63.74Z" transform="translate(-13.83 -4.63)" fill="none"/><path d="M22.83,51.57A0.67,0.67,0,0,0,22.9,51a0.7,0.7,0,0,0-.48-0.17H22.34a5.2,5.2,0,0,0-1.14.2L18,51.77a2.35,2.35,0,0,0-.94.37,0.58,0.58,0,0,0,0,.45,1.91,1.91,0,0,0,1.81,1.08h0a5.3,5.3,0,0,0,2.85-1.1A3.36,3.36,0,0,0,22.83,51.57Z" transform="translate(-13.83 -4.63)" fill="none"/><path d="M54.31,61.33a4.33,4.33,0,0,0-2.46-3.2,5.76,5.76,0,0,0-2.21-.33l-3.69,0a47.32,47.32,0,0,0-2.3-4.33A17.62,17.62,0,0,0,49,49.08a16.57,16.57,0,0,0,2.63-6.44,20.74,20.74,0,0,0,.58-5.35,11.2,11.2,0,0,0-1.54-5.44,1.23,1.23,0,0,0-.32-0.34,0.5,0.5,0,0,0-.69.1,5.56,5.56,0,0,1-.84.87l-0.13.1a0.5,0.5,0,0,0-.11.65,8.75,8.75,0,0,1,1.14,4.17,18.44,18.44,0,0,1-.53,4.71A14.27,14.27,0,0,1,47,47.58a15.67,15.67,0,0,1-4.68,3.76c-0.2-.3-0.4-0.61-0.61-0.9l-0.16-.23a13.23,13.23,0,0,0,6-16.17,1,1,0,0,0-.14-0.25A0.5,0.5,0,0,0,47,33.56l-0.16,0a5.55,5.55,0,0,1-1.23.25,0.5,0.5,0,0,0-.45.41,1.22,1.22,0,0,0,0,.65,10.77,10.77,0,0,1-5.42,13.43A4.66,4.66,0,0,0,39.22,48a8,8,0,0,0-2.72-.76l-0.88-.15c-2-.42-3.69-2.05-5.31-3.64L30,43.1c-1.68-1.64-3.52-3.29-5.78-5.18a7.45,7.45,0,0,0-4.09-2H19.81a4,4,0,0,0-3.95,2.93,4.48,4.48,0,0,0,1.35,3.83,19.06,19.06,0,0,0,4.86,3.57C24,47.36,25.75,48.4,26.82,50a6.66,6.66,0,0,1,.77,1.62l-2.18-.15a2.85,2.85,0,0,0-.53-2.06,3.11,3.11,0,0,0-2.35-1.13H22.34a7.13,7.13,0,0,0-1.74.27l-3.16.78a3.91,3.91,0,0,0-2.34,1.29,3,3,0,0,0-.4,2.7,4.32,4.32,0,0,0,4.21,2.83,7.66,7.66,0,0,0,4.25-1.53,7.94,7.94,0,0,0,.94-0.74l4,0.27a26.79,26.79,0,0,1,0,3.48l-9-.06a6.77,6.77,0,0,0-3.4.68A4,4,0,0,0,13.83,62a4.13,4.13,0,0,0,1.78,3.84,7.55,7.55,0,0,0,3.93.83c3.63,0.06,9.1.13,14.57,0.13,18.16,0,19-.75,19.57-1.29C54.95,64.39,54.52,62.32,54.31,61.33ZM19.79,38.44h0.14a5.22,5.22,0,0,1,2.69,1.39c2.21,1.85,4,3.46,5.64,5.06l0.31,0.31c1.88,1.83,3.82,3.73,6.55,4.3,0.33,0.07.68,0.12,1,.18a6,6,0,0,1,1.88.49,5.49,5.49,0,0,1,1.64,1.71,44.3,44.3,0,0,1,3.5,5.88H41.1l0.28-.45A1.25,1.25,0,0,0,39.22,56a8.52,8.52,0,0,1-1.29,1.69H37.62c0.14-.24.27-0.48,0.39-0.72a1.25,1.25,0,0,0-1.13-1.79,1.25,1.25,0,0,0-1.13.71,7.92,7.92,0,0,1-1.19,1.78H33.7L34,57.17a1.25,1.25,0,1,0-2.13-1.32l-1.13,1.82H30.56c0.18-3,.13-6.33-1.66-9-1.4-2.11-3.53-3.35-5.59-4.55A16.93,16.93,0,0,1,19.07,41a2.25,2.25,0,0,1-.76-1.68A1.5,1.5,0,0,1,19.79,38.44Zm-2.9,22a4.6,4.6,0,0,1,2.17-.36l30.56,0.2a3.78,3.78,0,0,1,1.27.14,2,2,0,0,1,1,1.4A5,5,0,0,1,52,63.64c-0.5.16-3.31,0.71-17.93,0.71-5.85,0-11.61-.08-14.52-0.13a5.44,5.44,0,0,1-2.67-.47,1.9,1.9,0,0,1-.57-1.7C16.33,60.77,16.74,60.54,16.9,60.45Zm2-6.78a1.91,1.91,0,0,1-1.81-1.08,0.58,0.58,0,0,1,0-.45A2.35,2.35,0,0,1,18,51.77L21.2,51a5.2,5.2,0,0,1,1.14-.2h0.08a0.7,0.7,0,0,1,.48.17,0.67,0.67,0,0,1-.07.6,3.36,3.36,0,0,1-1.07,1,5.3,5.3,0,0,1-2.85,1.1h0Z" transform="translate(-13.83 -4.63)" fill="#555"/><path d="M44.84,32.37h0.28a4.25,4.25,0,0,0,2.79-1.08,3.9,3.9,0,0,0,1.37-2.72,4.21,4.21,0,0,0-3.62-4.22,4.1,4.1,0,0,0-.59,0,4.15,4.15,0,0,0-3.91,2.62,4.07,4.07,0,0,0,.58,3.48A4.23,4.23,0,0,0,44.84,32.37Z" transform="translate(-13.83 -4.63)" fill="none"/><path d="M47.89,22.45a6.92,6.92,0,0,0-1.5-.49L46,21.88a6.53,6.53,0,0,0-.94-0.07,6.63,6.63,0,0,0-6.29,4.31,6.15,6.15,0,0,0-.14,3.29,7.18,7.18,0,0,0,1,2.37,6.74,6.74,0,0,0,5,3.08l0.48,0a3.13,3.13,0,0,0,.39,0l0.16,0a6.58,6.58,0,0,0,1.45-.29,7.1,7.1,0,0,0,2.25-1.23l0.17-.13a6.77,6.77,0,0,0,.9-1,6.28,6.28,0,0,0,1.32-3.51A6.62,6.62,0,0,0,47.89,22.45Zm-6.75,4.49a4.15,4.15,0,0,1,3.91-2.62,4.1,4.1,0,0,1,.59,0,4.21,4.21,0,0,1,3.62,4.22,3.9,3.9,0,0,1-1.37,2.72,4.25,4.25,0,0,1-2.79,1.08H44.84a4.23,4.23,0,0,1-3.11-2A4.07,4.07,0,0,1,41.15,26.93Z" transform="translate(-13.83 -4.63)" fill="#555"/><path d="M45.13,30.14H45a1.82,1.82,0,0,1-1.36-.82,1.76,1.76,0,0,1,1.49-2.76l0.26,0a1.81,1.81,0,0,1,1.55,1.87,1.76,1.76,0,0,1-.61,1.24A1.82,1.82,0,0,1,45.13,30.14Z" transform="translate(-13.83 -4.63)" fill="#4488b4"/><path d="M45.5,12.74a0.75,0.75,0,0,0-1.06.08l-12.06,14a0.75,0.75,0,0,0,1.14,1l12.06-14A0.75,0.75,0,0,0,45.5,12.74Z" transform="translate(-13.83 -4.63)" fill="#4488b4"/></svg>