<svg xmlns="http://www.w3.org/2000/svg" xmlns:xlink="http://www.w3.org/1999/xlink" viewBox="0 0 96.28 117.23"><defs><linearGradient id="a" x1="72.9" y1="21.91" x2="34.84" y2="99.57" gradientUnits="userSpaceOnUse"><stop offset="0" stop-color="#41873f"/><stop offset="0.33" stop-color="#418b3d"/><stop offset="0.64" stop-color="#409637"/><stop offset="0.93" stop-color="#3fa92d"/><stop offset="1" stop-color="#3fae2a"/></linearGradient><clipPath id="c" transform="translate(-8.2 5.13)"><path d="M58.32,3.81a5.09,5.09,0,0,0-5.09,0L11.1,28.12a5.09,5.09,0,0,0-2.55,4.41V81.2A5.09,5.09,0,0,0,11.1,85.6l42.13,24.33a5.09,5.09,0,0,0,5.09,0L100.45,85.6A5.09,5.09,0,0,0,103,81.2V32.53a5.09,5.09,0,0,0-2.55-4.41Z" fill="url(#a)" clip-rule="evenodd"/></clipPath><linearGradient id="d" x1="49.36" y1="62.55" x2="156.16" y2="-16.36" gradientUnits="userSpaceOnUse"><stop offset="0.14" stop-color="#41873f"/><stop offset="0.4" stop-color="#54a044"/><stop offset="0.71" stop-color="#66b748"/><stop offset="0.91" stop-color="#6cc04a"/></linearGradient><linearGradient id="e" x1="-1.14" y1="0.17" x2="96.28" y2="0.17" gradientUnits="userSpaceOnUse"><stop offset="0.09" stop-color="#6cc04a"/><stop offset="0.29" stop-color="#66b748"/><stop offset="0.6" stop-color="#54a044"/><stop offset="0.86" stop-color="#41873f"/></linearGradient><linearGradient id="f" x1="7.06" y1="56.85" x2="104.48" y2="56.85" xlink:href="#e"/><linearGradient id="g" x1="-1.14" y1="89.79" x2="96.28" y2="89.79" xlink:href="#e"/><linearGradient id="h" x1="7.06" y1="97.23" x2="104.48" y2="97.23" xlink:href="#e"/><linearGradient id="i" x1="118.67" y1="19.61" x2="58.59" y2="142.18" xlink:href="#a"/></defs><title>node</title><path d="M58.32,3.81a5.09,5.09,0,0,0-5.09,0L11.1,28.12a5.09,5.09,0,0,0-2.55,4.41V81.2A5.09,5.09,0,0,0,11.1,85.6l42.13,24.33a5.09,5.09,0,0,0,5.09,0L100.45,85.6A5.09,5.09,0,0,0,103,81.2V32.53a5.09,5.09,0,0,0-2.55-4.41Z" transform="translate(-8.2 5.13)" fill-rule="evenodd" fill="url(#a)"/><g clip-path="url(#c)"><path d="M53.14,3.81L10.92,28.12A5.26,5.26,0,0,0,8.2,32.53V81.2a4.92,4.92,0,0,0,1.31,3.24L57,3.28A5.17,5.17,0,0,0,53.14,3.81Z" transform="translate(-8.2 5.13)" fill="none"/><path d="M57.19,110.43a5.07,5.07,0,0,0,1.19-.49L100.55,85.6a5.19,5.19,0,0,0,2.65-4.41V32.53A5,5,0,0,0,101.66,29Z" transform="translate(-8.2 5.13)" fill="none"/><path d="M100.53,28.12L58.28,3.81A5.06,5.06,0,0,0,57,3.28L9.51,84.43a5.8,5.8,0,0,0,1.42,1.17l42.32,24.33a5.14,5.14,0,0,0,3.93.49L101.66,29A5.54,5.54,0,0,0,100.53,28.12Z" transform="translate(-8.2 5.13)" fill="url(#d)"/><path d="M103.2,81.2V32.53a5.21,5.21,0,0,0-2.67-4.41L58.28,3.81a5.07,5.07,0,0,0-1.55-.57L103,82.36A4.68,4.68,0,0,0,103.2,81.2Z" transform="translate(-8.2 5.13)" fill="none"/><path d="M10.92,28.12A5.26,5.26,0,0,0,8.2,32.53V81.2a5.28,5.28,0,0,0,2.73,4.41l42.32,24.33a5.13,5.13,0,0,0,3.26.63L11.18,28Z" transform="translate(-8.2 5.13)" fill="none"/><polygon points="43.63 0 43.05 0.33 43.82 0.33 43.63 0" fill="url(#e)"/><path d="M100.55,85.6A5.33,5.33,0,0,0,103,82.36L56.72,3.24a5.16,5.16,0,0,0-3.58.57L11.18,28l45.34,82.59a5.1,5.1,0,0,0,1.86-.63Z" transform="translate(-8.2 5.13)" fill="url(#f)"/><polygon points="96.28 89.95 96 89.47 96 90.11 96.28 89.95" fill="url(#g)"/><path d="M100.55,85.6L58.37,109.94a5.1,5.1,0,0,1-1.86.63l0.84,1.53L104.2,85V84.34l-1.16-2A5.33,5.33,0,0,1,100.55,85.6Z" transform="translate(-8.2 5.13)" fill="url(#h)"/><path d="M100.55,85.6L58.37,109.94a5.1,5.1,0,0,1-1.86.63l0.84,1.53L104.2,85V84.34l-1.16-2A5.33,5.33,0,0,1,100.55,85.6Z" transform="translate(-8.2 5.13)" fill="url(#i)"/></g></svg>