<?xml version="1.0" encoding="utf-8"?>
<!-- Generator: Adobe Illustrator 19.2.0, SVG Export Plug-In . SVG Version: 6.00 Build 0)  -->
<svg version="1.1" xmlns="http://www.w3.org/2000/svg" xmlns:xlink="http://www.w3.org/1999/xlink" x="0px" y="0px"
	 viewBox="0 0 314 218" style="enable-background:new 0 0 314 218;" xml:space="preserve">
<style type="text/css">
	.st0{fill:#FFFFFF;}
	.st1{fill:#675F58;}
	.st2{fill:#FF931E;}
</style>
<g id="Layer_2">
	<rect x="23.9" y="25.1" class="st0" width="222.9" height="125.9"/>
	<rect x="221.5" y="64.8" class="st0" width="75.7" height="128.6"/>
</g>
<g id="Layer_1">
	<g id="computer-devices-responsive">
		<g>
			<g id="_x32_3">
				<path class="st1" d="M177.1,201l3.4,7.2c0,0,0,2.1-1.4,2.1c-1.4,0-79.1,0-80.5,0c-1.4,0-1.7-2.1-1.7-2.1l3.4-7.2H177.1z
					 M176.9,185.7h-77v13.5h77V185.7z M23.9,151.2V25.1h223.3v14.4h14.6V14.7c0-3.9-3.2-7-7-7H16.8c-3.9,0-7,3.2-7,7v140.2v3.3v16.4
					c0,4.3,3.2,7.9,7,7.9h188.1v-31.3L23.9,151.2L23.9,151.2z"/>
				<path class="st2" d="M287.3,47.9h-57.2c-9.3,0-16.9,7.6-16.9,16.9v128.6c0,9.3,7.6,16.9,16.9,16.9h57.2
					c9.3,0,16.9-7.6,16.9-16.9V64.8C304.2,55.5,296.6,47.9,287.3,47.9z M248.4,52.8c0-0.6,0.9-1,2.1-1h16.6c1.1,0,2.1,0.5,2.1,1v0.5
					c0,0.6-0.9,1-2.1,1h-16.6c-1.1,0-2.1-0.5-2.1-1V52.8z M260.7,59c0,1.1-0.9,1.9-2,1.9s-2-0.9-2-1.9c0-1.1,0.9-2,2-2
					S260.7,57.9,260.7,59z M269.2,201.7c0,1.1-0.9,2.1-2.1,2.1h-16.6c-1.1,0-2.1-0.9-2.1-2.1v-1c0-1.1,0.9-2.1,2.1-2.1h16.6
					c1.1,0,2.1,0.9,2.1,2.1V201.7z M297.2,193.4h-75.7V64.8h75.7V193.4z"/>
			</g>
		</g>
	</g>
	<g id="Layer_1_1_">
	</g>
</g>
</svg>
