<svg xmlns="http://www.w3.org/2000/svg" viewBox="0 0 44.5 43.2"><title>user</title><path d="M15.6,14.7h0.1a1.15,1.15,0,0,0,1.09-.9,6.62,6.62,0,0,1,2.89-4.22,6.19,6.19,0,0,1,4.66-.9,1,1,0,0,0,.78-0.07,1.17,1.17,0,0,0,.56-0.75,1,1,0,0,0-.07-0.78,1.22,1.22,0,0,0-.81-0.57,8.72,8.72,0,0,0-6.59,1.33A8.4,8.4,0,0,0,14.6,13.4,1.15,1.15,0,0,0,15.6,14.7Z" transform="translate(-1.8 -2.4)" fill="#4488b4"/><path d="M33.1,31.5H14.9a13.07,13.07,0,0,0-13.1,13,1.14,1.14,0,0,0,1.1,1.1A1.14,1.14,0,0,0,4,44.5,10.91,10.91,0,0,1,14.9,33.6H33.2A10.91,10.91,0,0,1,44.1,44.5a1.1,1.1,0,1,0,2.2,0A13.25,13.25,0,0,0,33.1,31.5Z" transform="translate(-1.8 -2.4)" fill="#555"/><path d="M12.8,15.8A11.2,11.2,0,1,0,24,4.6,11.21,11.21,0,0,0,12.8,15.8Z" transform="translate(-1.8 -2.4)" fill="none"/><path d="M24,28.2a12.33,12.33,0,0,0,4.83-1,12.5,12.5,0,0,1-4.84,1h0Z" transform="translate(-1.8 -2.4)" fill="none"/><path d="M24,4.6A11.2,11.2,0,1,0,35.2,15.8,11.21,11.21,0,0,0,24,4.6Z" transform="translate(-1.8 -2.4)" fill="none"/><path d="M24,2.4A13.4,13.4,0,1,0,37.4,15.8,13.42,13.42,0,0,0,24,2.4ZM24,27A11.2,11.2,0,1,1,35.2,15.8,11.21,11.21,0,0,1,24,27Z" transform="translate(-1.8 -2.4)" fill="#555"/></svg>