<?xml version="1.0" standalone="no"?>
<!DOCTYPE svg PUBLIC "-//W3C//DTD SVG 20010904//EN"
 "http://www.w3.org/TR/2001/REC-SVG-20010904/DTD/svg10.dtd">
<svg version="1.0" xmlns="http://www.w3.org/2000/svg"
 width="512.000000pt" height="512.000000pt" viewBox="0 0 512.000000 512.000000"
 preserveAspectRatio="xMidYMid meet">

<g transform="translate(0.000000,512.000000) scale(0.100000,-0.100000)"
fill="#000000" stroke="none">
<path d="M2320 5109 c-491 -47 -981 -246 -1366 -557 -599 -482 -954 -1224
-954 -1992 0 -577 204 -1155 568 -1606 482 -599 1224 -954 1992 -954 577 0
1155 204 1606 568 599 482 954 1224 954 1992 0 577 -204 1155 -568 1606 -433
538 -1071 879 -1767 944 -125 11 -340 11 -465 -1z m-230 -1171 c184 -34 351
-152 426 -300 56 -111 66 -178 71 -500 l5 -298 -275 0 -276 0 -3 263 c-3 290
-8 312 -68 337 -39 16 -115 8 -140 -15 -45 -40 -45 -48 -45 -865 0 -832 -1
-823 51 -871 39 -36 112 -34 152 4 46 44 52 88 52 391 l0 276 276 0 276 0 -4
-347 c-5 -384 -7 -402 -73 -541 -66 -140 -185 -234 -360 -284 -108 -30 -367
-33 -460 -5 -214 66 -358 214 -426 437 -23 75 -23 76 -27 840 -2 526 0 796 8
864 38 334 186 539 433 603 121 31 278 35 407 11z m1800 -268 l0 -260 -162 -2
-163 -3 -3 -1113 -2 -1112 -270 0 -270 0 -2 1112 -3 1113 -162 3 -163 2 0 260
0 260 600 0 600 0 0 -260z"/>
</g>
</svg>
