<svg xmlns="http://www.w3.org/2000/svg" viewBox="0 0 18 22"><title>database</title><path d="M3,15v3.5C3,20.9,7,23,12,23s9-2.1,9-4.5V15H3Z" transform="translate(-3 -1)" fill="#95a5a6"/><path d="M21,15c0,2.21-4,4-9,4s-9-1.79-9-4,4-4,9-4S21,12.79,21,15Z" transform="translate(-3 -1)" fill="#bdc3c7"/><path d="M3.06,18.5A1.44,1.44,0,0,0,3,19c0,2.2,4,4,9,4s9-1.8,9-4a1.47,1.47,0,0,0-.06-0.5C20.38,20.4,16.59,22,12,22S3.62,20.4,3.06,18.5Z" transform="translate(-3 -1)" fill="#7f8c8d"/><path d="M3,10v3.5C3,15.9,7,18,12,18s9-2.1,9-4.5V10H3Z" transform="translate(-3 -1)" fill="#95a5a6"/><path d="M21,10c0,2.21-4,4-9,4s-9-1.79-9-4,4-4,9-4S21,7.79,21,10Z" transform="translate(-3 -1)" fill="#bdc3c7"/><path d="M3.06,13.5A1.44,1.44,0,0,0,3,14c0,2.2,4,4,9,4s9-1.8,9-4a1.47,1.47,0,0,0-.06-0.5C20.38,15.4,16.59,17,12,17S3.62,15.4,3.06,13.5Z" transform="translate(-3 -1)" fill="#7f8c8d"/><path d="M3,5V8.5C3,10.9,7,13,12,13s9-2.1,9-4.5V5H3Z" transform="translate(-3 -1)" fill="#95a5a6"/><path d="M3.06,8.5A1.44,1.44,0,0,0,3,9c0,2.2,4,4,9,4s9-1.8,9-4a1.47,1.47,0,0,0-.06-0.5C20.38,10.4,16.59,12,12,12S3.62,10.4,3.06,8.5Z" transform="translate(-3 -1)" fill="#7f8c8d"/><path d="M12,15v8c5,0,9-2.1,9-4.5V15H12Z" transform="translate(-3 -1)" fill="#bdc3c7"/><path d="M12,11v8c5,0,9-1.79,9-4S17,11,12,11Z" transform="translate(-3 -1)" fill="#ecf0f1"/><path d="M12,10v8c5,0,9-2,9-4.5V10H12Z" transform="translate(-3 -1)" fill="#bdc3c7"/><path d="M20.94,13.5c-0.55,2-4.35,3.5-8.94,3.5v1c5,0,9-1.79,9-4A1.87,1.87,0,0,0,20.94,13.5Z" transform="translate(-3 -1)" fill="#95a5a6"/><path d="M12,6v8c5,0,9-1.79,9-4S17,6,12,6Z" transform="translate(-3 -1)" fill="#ecf0f1"/><path d="M12,5v8c5,0,9-2,9-4.5V5H12Z" transform="translate(-3 -1)" fill="#bdc3c7"/><path d="M20.94,8.5c-0.55,2-4.35,3.5-8.94,3.5v1c5,0,9-1.79,9-4A1.87,1.87,0,0,0,20.94,8.5Z" transform="translate(-3 -1)" fill="#95a5a6"/><path d="M20.94,18.5C20.38,20.4,16.59,22,12,22v1c5,0,9-1.8,9-4A1.47,1.47,0,0,0,20.94,18.5Z" transform="translate(-3 -1)" fill="#95a5a6"/><path d="M21,5c0,2.21-4,4-9,4S3,7.21,3,5s4-4,9-4S21,2.79,21,5Z" transform="translate(-3 -1)" fill="#bdc3c7"/></svg>