<?xml version="1.0" encoding="UTF-8"?>
<svg  viewBox="0 0 128 128" version="1.1" xmlns="http://www.w3.org/2000/svg" xmlns:xlink="http://www.w3.org/1999/xlink">
    <g>
            <path d="M64,128 C28.653776,128 0,99.346224 0,64 C0,28.653776 28.653776,0 64,0 C99.346224,0 128,28.653776 128,64 C128,99.346224 99.346224,128 64,128 Z M32.5,43 L104,43 C104,40.8 102.2,39 100,39 L47.5,39 L46.2,36.9 C45.5,35.7 44.2,35 42.8,35 L28,35 C25.8,35 24,36.8 24,39 L24,59 L24,84.7 L28.6,46.6 C28.8,44.5 30.5,43 32.5,43 Z M108.5,47 L36.5,47 C34.5,47 32.8,48.5 32.5,50.5 L27.5,92.5 C27.2,94.9 29.1,97 31.5,97 L103.4,97 C105.4,97 107.1,95.5 107.4,93.5 L112.4,51.5 C112.7,49.1 110.9,47 108.5,47 Z" fill-rule="nonzero"></path>
    </g>
</svg>