<?xml version="1.0" encoding="utf-8"?>
<!-- Generator: Adobe Illustrator 19.2.0, SVG Export Plug-In . SVG Version: 6.00 Build 0)  -->
<svg version="1.1" id="Layer_1" xmlns="http://www.w3.org/2000/svg" xmlns:xlink="http://www.w3.org/1999/xlink" x="0px" y="0px"
	 viewBox="0 0 67 67" style="enable-background:new 0 0 67 67;" xml:space="preserve">
<path d="M52.3,49.3V36.2c0-7-3.7-10.3-8.7-10.3c-4,0-5.8,2.2-6.8,3.8v-3.2h-7.6c0.1,2.1,0,22.8,0,22.8h7.6V36.5c0-0.7,0-1.4,0.3-1.8
	c0.5-1.4,1.8-2.8,3.9-2.8c2.7,0,3.8,2.1,3.8,5.2v12.2L52.3,49.3L52.3,49.3z M21.2,23.4c2.6,0,4.3-1.8,4.3-3.9c0-2.2-1.6-3.9-4.2-3.9
	s-4.3,1.7-4.3,3.9C16.9,21.6,18.6,23.4,21.2,23.4L21.2,23.4z M33.5,67C15,67,0,52,0,33.5C0,15,15,0,33.5,0S67,15,67,33.5
	C67,52,52,67,33.5,67z M25,49.3V26.5h-7.6v22.8H25z"/>
</svg>
