<svg xmlns="http://www.w3.org/2000/svg" viewBox="0 0 87.33 10.17"><title>logo</title><path d="M71.46,8.34a0.74,0.74,0,0,1-.54-0.19,0.73,0.73,0,0,1-.19-0.5V2h5.91V1.07A1.2,1.2,0,0,1,76.73.65,1.23,1.23,0,0,1,77,.22H69.83a0.93,0.93,0,0,0-.36.07,0.85,0.85,0,0,0-.29.19,0.93,0.93,0,0,0-.26.65V7.65a2.52,2.52,0,0,0,.25,1.18,2.43,2.43,0,0,0,.63.78,2.4,2.4,0,0,0,.82.43,2.89,2.89,0,0,0,.82.13h5.19V8.34H71.46Z" transform="translate(0 -0.11)"/><path d="M68.92,8.94a2.83,2.83,0,0,1-.3-1.29V6.89l-6.3-6.57a1,1,0,0,0-.8-0.16,0.7,0.7,0,0,0-.66.44L61,0.78a2.42,2.42,0,0,1,.43.81,2.82,2.82,0,0,1,.13.8V3.54a4,4,0,0,1-.17,1.19,3.41,3.41,0,0,1-.45.94,2.31,2.31,0,0,1-.2.24v3l1.41,1.22h0.4v-7L69.18,10a0.78,0.78,0,0,0,.3.2,1,1,0,0,0,.34.06,0.91,0.91,0,0,0,.35-0.07h0.06A2.57,2.57,0,0,1,68.92,8.94Z" transform="translate(0 -0.11)"/><path d="M26.63,6V4.21h4.08V6H26.63Z" transform="translate(0 -0.11)"/><path d="M31.52,0.14H23.39A0.93,0.93,0,0,0,23,.21a0.85,0.85,0,0,0-.29.19,0.93,0.93,0,0,0-.26.65V7.56a2.52,2.52,0,0,0,.25,1.18,2.43,2.43,0,0,0,.63.78,2.4,2.4,0,0,0,.82.43,2.89,2.89,0,0,0,.82.13h6.52V8.29H25a0.74,0.74,0,0,1-.55-0.19,0.73,0.73,0,0,1-.19-0.54V1.95h7.24V0.14Z" transform="translate(0 -0.11)"/><path d="M6.65,8.29H2.53A0.73,0.73,0,0,1,2,8.1,0.73,0.73,0,0,1,1.8,7.56V2.65A0.75,0.75,0,0,1,2,2.09a0.73,0.73,0,0,1,.54-0.14H6.65a4.2,4.2,0,0,1,.71-1A4.27,4.27,0,0,1,8.57.14h-6a2.72,2.72,0,0,0-.83.12,2.39,2.39,0,0,0-.65.32A2.25,2.25,0,0,0,.61,1a2.52,2.52,0,0,0-.33.54,2.74,2.74,0,0,0-.18.57,2.67,2.67,0,0,0-.1.51V7.56a2.76,2.76,0,0,0,.12.84A2.37,2.37,0,0,0,.44,9a2.19,2.19,0,0,0,.48.48,2.65,2.65,0,0,0,.54.32A2.77,2.77,0,0,0,2,10a2.68,2.68,0,0,0,.54.06h6a4.2,4.2,0,0,1-1.21-.82A4.24,4.24,0,0,1,6.65,8.29Z" transform="translate(0 -0.11)"/><path d="M22.47,8.89a2.39,2.39,0,0,1-.21-0.59h-4V0.14h-1.8v9a0.94,0.94,0,0,0,.07.36A0.87,0.87,0,0,0,17,10a0.92,0.92,0,0,0,.36.07h6.35A2.59,2.59,0,0,1,22.47,8.89Z" transform="translate(0 -0.11)"/><path d="M43.19,2H41v8.15H39.21V2h-4V0.16H45Z" transform="translate(0 -0.11)"/><path d="M57.92,6.86a3.58,3.58,0,0,0,.71-0.08,3.43,3.43,0,0,0,.75-0.25,3.61,3.61,0,0,0,.71-0.43,2.94,2.94,0,0,0,.6-0.64,3.11,3.11,0,0,0,.45-0.81,3.68,3.68,0,0,0,.15-1.1V2.36a2.49,2.49,0,0,0-.11-0.71A2.14,2.14,0,0,0,60.81.94,2.08,2.08,0,0,0,60.13.38a2.17,2.17,0,0,0-1-.22H53.36V2h5.86a0.27,0.27,0,0,1,.22.16,0.56,0.56,0,0,1,0,.23V3.51a1.66,1.66,0,0,1-.11.63,1.32,1.32,0,0,1-.32.47,1.55,1.55,0,0,1-.49.31,2.09,2.09,0,0,1-.62.14h-4v1.8h1.3l3.7,3.26h2.8Z" transform="translate(0 -0.11)"/><path d="M86.92,3.51a3.68,3.68,0,0,1-.18,1.14,3.11,3.11,0,0,1-.41.86,2.94,2.94,0,0,1-.6.64,3.61,3.61,0,0,1-.71.43,3.43,3.43,0,0,1-.75.25,3.58,3.58,0,0,1-.71.08l3.77,3.26h-2.8L80.77,6.86h-1.3V5.06h4.08a2.09,2.09,0,0,0,.62-0.14,1.55,1.55,0,0,0,.49-0.27A1.32,1.32,0,0,0,85,4.18a1.66,1.66,0,0,0,.11-0.63V2.37a0.56,0.56,0,0,0,0-.23A0.27,0.27,0,0,0,84.87,2H78.75v8.15H76.92v-9A0.92,0.92,0,0,1,77.2.43a0.86,0.86,0,0,1,.29-0.2A0.93,0.93,0,0,1,77.85.16H84.7a2.17,2.17,0,0,1,1,.22,2.08,2.08,0,0,1,.68.55,2.14,2.14,0,0,1,.37.71,2.49,2.49,0,0,1,.11.72V3.51h0.06Z" transform="translate(0 -0.11)"/><path d="M52.29,0.16A0.93,0.93,0,0,0,52,.23a0.87,0.87,0,0,0-.29.19,0.93,0.93,0,0,0-.26.65V8.31H47.86a3.59,3.59,0,0,1-.62-0.12,3.82,3.82,0,0,1-.74-0.3,2.6,2.6,0,0,1-.72-0.56,2.85,2.85,0,0,1-.54-0.88A3.48,3.48,0,0,1,45,5.16V0.59l-1.81,1.8V5.14a5.67,5.67,0,0,0,.21,1.59A4.66,4.66,0,0,0,44,8a4.33,4.33,0,0,0,.85,1,4.93,4.93,0,0,0,1,.66,5.21,5.21,0,0,0,1.14.39,5.63,5.63,0,0,0,1.17.12h4.07a0.91,0.91,0,0,0,.35-0.07A0.92,0.92,0,0,0,53,9.86a0.85,0.85,0,0,0,.19-0.29,0.93,0.93,0,0,0,.07-0.36V0.16H52.29Z" transform="translate(0 -0.11)"/><path d="M76.64,4.26V6.08H73.07V4.26h3.57Z" transform="translate(0 -0.11)"/><path d="M15.16,3.24A2.08,2.08,0,0,0,14,2a2.57,2.57,0,0,0-1-.17H10.55a2.58,2.58,0,0,0-1,.17,2.15,2.15,0,0,0-.74.48,2.09,2.09,0,0,0-.48.73,2.61,2.61,0,0,0-.17,1V6.11a2.6,2.6,0,0,0,.17,1,2.1,2.1,0,0,0,.48.73,2.15,2.15,0,0,0,.74.48,2.58,2.58,0,0,0,1,.17h2.37a2.59,2.59,0,0,0,1-.17,2.15,2.15,0,0,0,.74-0.48,2.11,2.11,0,0,0,.48-0.73,2.28,2.28,0,0,0,.21-0.81V4.23A2.61,2.61,0,0,0,15.16,3.24Z" transform="translate(0 -0.11)" fill="none"/><path d="M15.87,1.27A4,4,0,0,0,14.61.42,4.27,4.27,0,0,0,13,.11H10.55a4.3,4.3,0,0,0-1.6.31A3.86,3.86,0,0,0,6.73,2.58a4.3,4.3,0,0,0-.32,1.65V6.11a4.29,4.29,0,0,0,.32,1.65A4,4,0,0,0,7.6,9.07a3.88,3.88,0,0,0,1.31.85,4.35,4.35,0,0,0,1.64.31H13a4.32,4.32,0,0,0,1.64-.31,3.9,3.9,0,0,0,1.27-.85C16,9,16,8.88,16.11,8.78V1.56C16,1.46,16,1.36,15.87,1.27ZM15.12,7.1a2.11,2.11,0,0,1-.48.73,2.15,2.15,0,0,1-.74.48,2.59,2.59,0,0,1-1,.17H10.55a2.58,2.58,0,0,1-1-.17,2.15,2.15,0,0,1-.74-0.48A2.1,2.1,0,0,1,8.34,7.1a2.6,2.6,0,0,1-.17-1V4.23a2.61,2.61,0,0,1,.17-1,2.09,2.09,0,0,1,.48-0.73A2.15,2.15,0,0,1,9.56,2a2.58,2.58,0,0,1,1-.17H13A2.57,2.57,0,0,1,14,2a2.08,2.08,0,0,1,1.21,1.21,2.61,2.61,0,0,1,.17,1V6.29A2.28,2.28,0,0,1,15.12,7.1Z" transform="translate(0 -0.11)"/></svg>