<svg xmlns="http://www.w3.org/2000/svg" xmlns:xlink="http://www.w3.org/1999/xlink" viewBox="0 0 111.16 112.39"><defs><linearGradient id="a" x1="108.12" y1="-164.58" x2="217.14" y2="-258.37" gradientTransform="matrix(0.56, 0, 0, -0.57, -57.96, -83.88)" gradientUnits="userSpaceOnUse"><stop offset="0" stop-color="#5a9fd4"/><stop offset="1" stop-color="#306998"/></linearGradient><linearGradient id="b" x1="259.28" y1="-315.14" x2="220.35" y2="-260.06" gradientTransform="matrix(0.56, 0, 0, -0.57, -57.96, -83.88)" gradientUnits="userSpaceOnUse"><stop offset="0" stop-color="#ffd43b"/><stop offset="1" stop-color="#ffe873"/></linearGradient></defs><title>python</title><path d="M60.51,6.4A76.56,76.56,0,0,0,47.7,7.49c-11.35,2-13.41,6.2-13.41,13.94V31.65H61.1v3.41H24.23c-7.79,0-14.62,4.68-16.75,13.59C5,58.86,4.91,65.23,7.48,75.9c1.91,7.94,6.46,13.59,14.25,13.59h9.22V77.24A17,17,0,0,1,47.7,60.59H74.48A13.51,13.51,0,0,0,87.89,47V21.43c0-7.27-6.13-12.72-13.41-13.94A83.63,83.63,0,0,0,60.51,6.4ZM46,14.62a5.11,5.11,0,1,1-5,5.12A5.09,5.09,0,0,1,46,14.62Z" transform="translate(-5.59 -6.4)" fill="url(#a)"/><path d="M91.23,35.05V47c0,9.23-7.83,17-16.75,17H47.7A13.68,13.68,0,0,0,34.29,77.59v25.53c0,7.27,6.32,11.54,13.41,13.63a44.86,44.86,0,0,0,26.78,0c6.75-2,13.41-5.89,13.41-13.62V92.9H61.1V89.49h40.19c7.79,0,10.7-5.44,13.41-13.59,2.8-8.4,2.68-16.48,0-27.25-1.93-7.76-5.6-13.59-13.41-13.59H91.23ZM76.17,99.71a5.11,5.11,0,1,1-5,5.09A5.06,5.06,0,0,1,76.17,99.71Z" transform="translate(-5.59 -6.4)" fill="url(#b)"/></svg>