<svg xmlns="http://www.w3.org/2000/svg" viewBox="0 0 562.8 499.89"><title>react</title><path d="M552.4,249.6c-17.4-14.4-41.9-27.4-71-37.4q-8.71-3-18-5.7,1.55-6.3,2.81-12.4c14-67.6,4.1-120.4-25.8-137.6l-57.7.1c-21.2,7.8-44.7,22.6-67.9,42.8q-7,6.09-14,12.86-4.7-4.5-9.37-8.66C239.8,57.7,189.1,39.9,159.3,57.2c-14.7,8.5-24.6,25.8-28.8,50.1-3.8,22.3-2.7,50,3.2,80.2q1.79,9.15,4.15,18.64-10.8,3.07-20.85,6.56c-61.1,21.2-97.5,53.7-97.5,86.9l29.4,51.6c18.1,15.5,43.5,29.1,73.4,39.3q7.38,2.53,15.29,4.8-2.52,10.19-4.39,20c-12.1,63.5-2.1,111.3,26.6,127.9,7.6,4.4,16.6,6.6,26.8,6.6,9.8,0,20.8-2.1,32.5-6.3,22.4-7.9,46.9-23.1,70.7-43.9q5.82-5.09,11.69-10.77,7.61,7.32,15.21,13.87c36,31,70.5,47.4,97.7,47.4,9.9,0,18.8-2.2,26.3-6.6,15-8.7,25.4-26.4,30-51.3,4.3-23.4,3.3-52.2-2.8-83.2q-1.45-7.36-3.35-15c3.56-1.05,7.05-2.14,10.45-3.27,65.6-21.7,106.3-56.6,106.3-91.1C581.3,282.7,571.3,265.4,552.4,249.6Z" transform="translate(-18.5 -50.21)" fill="#fff"/><circle cx="281" cy="249.39" r="50.2" fill="#00d8ff"/><path d="M299.5,414.6c-70.5,0-132.1-8.3-178.2-24.1C91.4,380.3,66,366.7,47.9,351.2c-19.2-16.4-29.4-34.3-29.4-51.6,0-33.2,36.4-65.7,97.5-86.9,50-17.4,115.2-27.1,183.4-27.1,67,0,131.3,9.4,181,26.6,29.1,10,53.6,23,71,37.4,18.9,15.8,28.9,33.1,28.9,50,0,34.5-40.7,69.4-106.3,91.1C427.6,406.1,365.6,414.6,299.5,414.6Zm0-205c-64.7,0-128.7,9.4-175.5,25.7-56.2,19.6-81.4,46.4-81.4,64.3,0,18.6,27.1,47.9,86.5,68.2,43.6,14.9,102.6,22.8,170.4,22.8,63.6,0,122.9-8,167-22.7,61.7-20.5,89.9-49.8,89.9-68.3,0-9.5-7.2-20.7-20.3-31.6-15.1-12.6-37.1-24.1-63.4-33.2C425.4,218.6,363.9,209.6,299.5,209.6Z" transform="translate(-18.5 -50.21)" fill="#00d8ff"/><path d="M185.6,549.8c-10.2,0-19.2-2.2-26.8-6.6-28.7-16.6-38.7-64.4-26.6-127.9,9.9-52.1,34.1-113.3,68.2-172.4,33.5-58,73.7-109,113.4-143.5,23.2-20.2,46.7-35,67.9-42.8,23.1-8.5,43.1-8.5,57.7-.1,29.9,17.2,39.8,70,25.8,137.6-9.9,48-33.5,105.9-66.5,163.2-35.2,61-73.2,110.2-109.9,142.3-23.8,20.8-48.3,36-70.7,43.9C206.4,547.7,195.4,549.8,185.6,549.8Zm25.1-300.9,10.4,6c-32.3,56-56.2,116.1-65.4,164.9-11.1,58.5-.4,93.7,15,102.6,3.8,2.2,8.8,3.4,14.9,3.4,19.9,0,51.2-12.6,87.4-44.2,34.7-30.3,71-77.5,104.9-136.2,31.8-55.1,54.4-110.5,63.8-156,13.1-63.7,1.8-102.7-14.3-112-8.2-4.7-21.5-4.1-37.5,1.8-18.5,6.8-39.4,20.1-60.4,38.4-37.7,32.8-76.2,81.6-108.4,137.4Z" transform="translate(-18.5 -50.21)" fill="#00d8ff"/><path d="M413.4,550.1c-27.2,0-61.7-16.4-97.7-47.4-40.2-34.6-81.1-86.1-115.3-145.2h0c-33.6-58-57.6-118.3-67.7-170-5.9-30.2-7-57.9-3.2-80.2,4.2-24.3,14.1-41.6,28.8-50.1,29.8-17.3,80.5.5,132.1,46.4,36.6,32.5,75,81.9,108.1,139.1,35.3,61,59,118.5,68.4,166.3,6.1,31,7.1,59.8,2.8,83.2-4.6,24.9-15,42.6-30,51.3C432.2,547.9,423.3,550.1,413.4,550.1ZM221.2,345.5c32.4,56,72.6,106.7,110.2,139,45.1,38.8,80.9,47.2,96.4,38.2,16.1-9.3,27.9-47.4,15.7-109-9-45.2-31.7-100.2-65.7-158.9-31.9-55.1-68.6-102.4-103.3-133.2-48.6-43.2-88-52.9-104.1-43.6-8.2,4.7-14.3,16.6-17.2,33.4-3.3,19.4-2.3,44.2,3.1,71.5,9.6,49.1,32.6,106.8,64.9,162.6h0Z" transform="translate(-18.5 -50.21)" fill="#00d8ff"/></svg>