<svg xmlns="http://www.w3.org/2000/svg" viewBox="0 0 114.9 95.6"><title>ruby</title><polygon points="87.04 1.18 86.74 0.89 86.74 0.42 86.31 0 28.67 0 27.56 1.07 27.56 1.55 0 28.2 0.18 28.41 56.87 95.6 57.08 95.36 57.42 94.97 114.65 28.41 114.91 28.12 87.04 1.18" fill="#dc4126"/><polygon points="86.31 0 28.67 0 27.56 1.07 27.56 28.78 86.74 28.78 86.74 0.42 86.31 0" fill="#f0553a"/><polygon points="15.66 28.41 0.18 28.41 56.87 95.6 57.08 95.36 31.89 28.41 15.66 28.41" fill="#f0553a"/><polygon points="82.94 28.41 57.42 94.97 114.65 28.41 99.32 28.41 82.94 28.41" fill="#bb3821"/><polygon points="82.94 28.41 57.63 28.41 57.72 28.33 57.27 28.33 57.35 28.41 31.89 28.41 57.08 95.36 57.42 94.97 82.94 28.41" fill="#dc4126"/><polygon points="27.94 1.18 15.66 28.41 31.89 28.41 31.86 28.33 57.27 28.33 28.57 0.57 27.94 1.18" fill="#dc4126"/><polygon points="27.94 1.18 0 28.2 0.18 28.41 15.66 28.41 27.94 1.18" fill="#f0553a"/><polygon points="87.04 1.18 86.42 0.57 57.72 28.33 82.98 28.33 82.94 28.41 99.32 28.41 87.04 1.18" fill="#bb3821"/><polygon points="87.04 1.18 99.32 28.41 114.65 28.41 114.91 28.12 87.04 1.18" fill="#dc4126"/></svg>