<svg xmlns="http://www.w3.org/2000/svg" viewBox="0 0 65.08 54.81"><title>stack</title><polygon points="55.44 28.97 53.42 32.27 57.69 34.88 32.56 50.28 7.43 34.88 11.69 32.27 9.68 28.97 0.04 34.88 32.56 54.81 65.08 34.88 55.44 28.97" fill="#555"/><polygon points="56.57 22.19 52.9 24.47 57.69 27.41 32.56 42.81 7.43 27.41 12.03 24.59 9.07 22.13 0 27.38 32.56 47.34 65.08 27.41 56.57 22.19" fill="#4488b4"/><polygon points="59.47 19.93 32.56 3.44 5.65 19.93 32.56 36.42 59.47 19.93" fill="none"/><path d="M33.22,1.59L0.7,21.52,33.22,41.46,65.74,21.52Zm0,3.44L60.13,21.52,33.22,38,6.31,21.52Z" transform="translate(-0.66 -1.59)" fill="#555"/></svg>