<?xml version="1.0" encoding="utf-8"?>
<!-- Generator: Adobe Illustrator 19.2.0, SVG Export Plug-In . SVG Version: 6.00 Build 0)  -->
<svg version="1.1" id="Layer_1" xmlns="http://www.w3.org/2000/svg" xmlns:xlink="http://www.w3.org/1999/xlink" x="0px" y="0px"
	 viewBox="0 0 56.7 56.7" style="enable-background:new 0 0 56.7 56.7;" xml:space="preserve">
<path d="M28.4,0C12.8,0,0.2,12.6,0.2,28.2c0,15.6,12.6,28.2,28.2,28.2c15.6,0,28.2-12.6,28.2-28.2C56.7,12.6,44,0,28.4,0z
	 M38.3,43.9c-1.5,0.7-2.9,1.2-4.1,1.5c-1.2,0.3-2.6,0.4-4,0.4c-1.6,0-2.6-0.2-3.8-0.6c-1.2-0.4-2.3-1-3.2-1.8
	c-0.9-0.8-1.5-1.6-1.8-2.4c-0.3-0.9-0.5-2.1-0.5-3.7V24.8H16v-5c1.4-0.5,3-1.1,4-2c1-0.8,1.8-1.9,2.4-3.1c0.6-1.2,1-2.7,1.2-4.5h5.1
	v8.2h8.2v6.3h-8.2v9.1c0,2.1,0,3.3,0.2,3.8s0.8,1.2,1.4,1.5c0.8,0.5,1.7,0.7,2.7,0.7c1.8,0,3.6-0.6,5.4-1.8L38.3,43.9L38.3,43.9z"/>
</svg>
