<?xml version="1.0" encoding="utf-8"?>
<!-- Generator: Adobe Illustrator 19.2.0, SVG Export Plug-In . SVG Version: 6.00 Build 0)  -->
<svg version="1.1" id="Layer_1" xmlns="http://www.w3.org/2000/svg" xmlns:xlink="http://www.w3.org/1999/xlink" x="0px" y="0px"
	 viewBox="0 0 32 32" style="enable-background:new 0 0 32 32;" xml:space="preserve">
<g>
	<path d="M16,0C7.2,0,0,7.2,0,16c0,8.8,7.2,16,16,16s16-7.2,16-16C32,7.2,24.8,0,16,0z M24.7,10.7c-0.1,0.1-0.5,0.6-0.9,1
		c-0.7,0.7-0.8,0.8-0.8,1.4c0,0.9-0.4,2.8-0.9,3.9c-0.8,2-2.5,4-4.2,5c-2.4,1.4-5.6,1.8-8.3,1c-0.9-0.3-2.5-1-2.5-1.1
		c0,0,0.5-0.1,1-0.1c1.2,0,2.4-0.4,3.4-1l0.7-0.4L11.5,20c-1.1-0.4-2.1-1.3-2.4-2.1c-0.1-0.3-0.1-0.3,0.7-0.3l0.7,0l-0.6-0.3
		c-0.7-0.4-1.4-1-1.7-1.6C8,15.2,7.7,14,7.7,13.9c0,0,0.3,0,0.6,0.1c0.9,0.3,1,0.2,0.5-0.3c-1-1-1.2-2.4-0.8-3.8l0.2-0.6l0.8,0.8
		c1.7,1.7,3.7,2.7,6.1,3l0.6,0.1l0-0.6c-0.1-1.6,0.9-3.1,2.5-3.7c0.6-0.2,1.6-0.2,2.2-0.1c0.3,0.1,0.7,0.3,1.1,0.6l0.6,0.4l0.7-0.2
		c0.4-0.1,0.9-0.3,1.1-0.4C24.2,9.1,24.4,9,24.4,9c0,0.2-0.5,1-0.9,1.4C23,11,23.1,11,24.2,10.6C24.9,10.4,24.9,10.4,24.7,10.7z"/>
</g>
</svg>
